<svg id="Layer_1" data-name="Layer 1" xmlns="http://www.w3.org/2000/svg" viewBox="0 0 293.64 120.55"><defs><style>.cls-1{fill:#ec4b28;}</style></defs><path class="cls-1" d="M82.19,116.42l.14-.1-.15.06Z"/><path class="cls-1" d="M60.26,74.37l0,0h0L71.79,62.85A7.49,7.49,0,0,0,61.2,52.26l-.94,1-.91-.91A7.48,7.48,0,0,0,48.77,62.88Z"/><path class="cls-1" d="M176.35,22.41v-.15c0-4.15-.92-7.46-5.21-7.46h-2.26V29.87H171C175.5,29.87,176.35,26.49,176.35,22.41Z"/><path class="cls-1" d="M293.64,120.55,249.77,0H60.28l.06,0A59.61,59.61,0,0,0,41,3.18l0,0-1.3.47A60.3,60.3,0,0,0,60.31,120.54H293.64ZM42.49,98.39a42.08,42.08,0,0,1,2.09-77.2l4.34,11.92A29.42,29.42,0,0,0,69,88.35l4.34,11.91A41.79,41.79,0,0,1,42.49,98.39Zm8.66-63.21A26.72,26.72,0,0,1,85.36,51.12h0A26.69,26.69,0,0,1,35.19,69.38h0A26.72,26.72,0,0,1,51.15,35.18Zm30.07,78.57-4.3-11.81,0-.07A44.81,44.81,0,0,0,46.26,17.69l0-.07L41.94,5.82A57.44,57.44,0,0,1,81.22,113.75ZM152.55,75c0,7-3.38,13.45-8.53,21.48l-5.91,9.23h14V113h-23v-6.62l8.38-13c4.58-7.11,7.05-12.68,7.05-18.17V75c0-4.22-1.2-6-3.38-6-2.82,0-3.95,2.82-3.95,8.31v.15h-7.81v-.15c0-10.7,4.78-15.56,12-15.56,7.6,0,11.2,5.42,11.2,13.1Zm-5.64-17.1-1.48-10.63h-8l-1.4,10.63h-8.38l8.17-50.35h11.19l8.1,50.35Zm13.73,0,.07-5.14V12.69l-.07-5.14h11.48c10.14,0,12.68,6.62,12.68,14.71v.15c0,5.28-1.34,9.86-5.14,12.39l6.13,23.1h-8.74l-5.28-21h-2.89V52.76L169,57.9ZM190.15,113H170.57l.07-5.14V67.75l-.07-5.14h8.31l-.07,5.14v38h11.34Zm14.16,0H196l.07-5.14V67.75L196,62.61h8.31l-.07,5.14v40.07Zm7.46-98.16h-8v38l.07,5.14h-8.24l.07-5.14v-38h-8V7.55h24.08ZM234,69.86H221.63V83h9.72v7.46h-9.72v17.4l.07,5.14h-8.31l.07-5.14V67.75l-.07-5.14H234Zm-5.57-11.11c-7.46,0-12-5-13.17-13.67l8-1c.71,5,2.47,7,5.07,7,2.75,0,4.37-1.83,4.37-4.86s-1.83-5.63-5.28-8.66l-4.16-3.67c-4.93-4.43-7.18-8.8-7.18-14.22,0-7.54,4.93-12.89,12.18-12.89s11.13,4.79,12.12,12.61l-8,1.05c-.42-3.66-1.62-5.91-4.16-5.91s-3.73,2-3.73,4.79c0,3.31,1.83,5.42,5.28,8.52l4.16,3.59c4.93,4.44,7.18,8.94,7.18,14.44C241.07,53.75,236.14,58.75,228.39,58.75ZM260.22,113H239.31l.07-5.14V67.75l-.07-5.14h20.63v7.25H247.55V83h9.72v7.46h-9.72v15.29h12.67Z"/><path class="cls-1" d="M141.63,18.11h-.35c-.14,1.69-.43,4.93-.78,7.25l-2,14.44h5.85l-2-14.44C142.12,23,141.77,19.8,141.63,18.11Z"/><path class="cls-1" d="M138.53,39.8l2-14.44c.35-2.32.64-5.56.78-7.25h.35c.14,1.69.49,4.93.77,7.25l2,14.44Z"/><path class="cls-1" d="M168.88,14.8h2.26c4.29,0,5.21,3.31,5.21,7.46v.15c0,4.08-.85,7.46-5.35,7.46h-2.12Z"/></svg>